<svg xmlns="http://www.w3.org/2000/svg" xmlns:xlink="http://www.w3.org/1999/xlink" width="58" height="38" viewBox="0 0 58 38"><defs><path id="1fyoa" d="M567 1015.94v26.12a6 6 0 0 1-6.04 5.94h-45.92a6 6 0 0 1-6.04-5.94v-26.12a6 6 0 0 1 6.04-5.94h45.92a6 6 0 0 1 6.04 5.94zm-2.42 26.12v-15.44h-53.16v15.44a3.6 3.6 0 0 0 3.62 3.57h45.92c2 0 3.62-1.6 3.62-3.57zm0-26.12a3.6 3.6 0 0 0-3.62-3.57h-45.92c-2 0-3.62 1.6-3.62 3.57v1.18h53.16zm0 8.31v-4.75h-53.16v4.75zm-31.41 10.69a1.2 1.2 0 0 1-1.21 1.18h-14.5a1.2 1.2 0 0 1-1.21-1.18c0-.66.54-1.19 1.2-1.19h14.5c.68 0 1.22.53 1.22 1.19zm0 4.75a1.2 1.2 0 0 1-1.21 1.19h-14.5a1.2 1.2 0 0 1-1.21-1.2c0-.65.54-1.18 1.2-1.18h14.5c.68 0 1.22.53 1.22 1.19zm26.58-4.75v2.37a3.6 3.6 0 0 1-3.63 3.56h-2.41c-2 0-3.63-1.6-3.63-3.56v-2.37a3.6 3.6 0 0 1 3.63-3.57h2.41c2 0 3.63 1.6 3.63 3.57zm-2.42 0a1.2 1.2 0 0 0-1.2-1.19h-2.42c-.67 0-1.21.53-1.21 1.19v2.37c0 .66.54 1.19 1.2 1.19h2.42c.67 0 1.21-.53 1.21-1.19z"/></defs><g><g transform="translate(-509 -1010)"><use xlink:href="#1fyoa"/></g></g></svg>