<svg xmlns="http://www.w3.org/2000/svg" xmlns:xlink="http://www.w3.org/1999/xlink" width="54" height="40" viewBox="0 0 54 40"><defs><path id="iunxa" d="M1153 1031.33v13.34a3.36 3.36 0 0 1-3.37 3.33h-33.73a3.57 3.57 0 0 1-.04 0h-13.48a3.36 3.36 0 0 1-3.38-3.33v-13.34c0-5.51 4.54-10 10.12-10H1126v-12.22c0-.61.5-1.11 1.13-1.11h11.25c.62 0 1.12.5 1.12 1.11v6.67c0 .61-.5 1.1-1.12 1.1h-10.13v4.45h14.62c5.59 0 10.13 4.49 10.13 10zm-2.25 0a7.84 7.84 0 0 0-7.88-7.77h-14.62v7.77c0 .62-.5 1.11-1.12 1.11-.63 0-1.13-.5-1.13-1.1v-7.78h-10.52a9.94 9.94 0 0 1 3.77 7.77v13.34c0 .39-.07.76-.2 1.1h30.58c.62 0 1.12-.5 1.12-1.1zm-49.5 0v13.34c0 .6.5 1.1 1.12 1.1h13.5c.63 0 1.13-.5 1.13-1.1v-13.34a7.84 7.84 0 0 0-7.88-7.77 7.84 7.84 0 0 0-7.87 7.77zm36-21.1h-9v4.44h9z"/></defs><g><g transform="translate(-1099 -1008)"><use xlink:href="#iunxa"/></g></g></svg>