<svg xmlns="http://www.w3.org/2000/svg" xmlns:xlink="http://www.w3.org/1999/xlink" width="58" height="36" viewBox="0 0 58 36"><defs><path id="m68za" d="M857 1029.9v9.5c0 .5-.4.9-.9.9h-2.98v.06a5.7 5.7 0 0 1-5.75 5.64 5.7 5.7 0 0 1-5.75-5.64v-.06h-20.46v.06a5.7 5.7 0 0 1-5.75 5.64 5.7 5.7 0 0 1-5.75-5.64v-.06h-4.9a1.86 1.86 0 0 1-1.89-1.84v-1.96h-2.96a.9.9 0 0 1-.91-.9c0-.49.4-.89.9-.89h8.73c.5 0 .9.4.9.9 0 .49-.4.89-.9.89h-3.94v1.96c0 .03.03.05.06.05h5.22a5.75 5.75 0 0 1 5.44-3.8c2.51 0 4.65 1.6 5.43 3.8h18.84v-6.7c0-.5.41-.9.91-.9s.91.4.91.9v6.7h.44a5.75 5.75 0 0 1 5.43-3.8c2.52 0 4.66 1.6 5.44 3.8h2.37v-3.92h-1.03a2.82 2.82 0 0 1-2.84-2.79v-1.9c0-.5.4-.89.9-.89h2.83a2.97 2.97 0 0 0-2.82-2.02H841.5v1.01c0 .5-.4.9-.9.9a.9.9 0 0 1-.92-.9v-16.16a.06.06 0 0 0-.06-.06h-34.87a.06.06 0 0 0-.06.06V1028c0 .5-.4.9-.9.9a.9.9 0 0 1-.92-.9v-16.16c0-1.01.85-1.84 1.88-1.84h34.87c1.04 0 1.88.83 1.88 1.84v1.96h6.84c2.1 0 3.82 1.68 3.82 3.74v.96a.9.9 0 0 1-.72.87l1.5 5.9c2.3.33 4.06 2.28 4.06 4.63zm-15.5-12.3h8.84v-.06c0-1.08-.9-1.96-2-1.96h-6.84zm0 7.6h9.55l-1.48-5.81h-8.07zm-22.16 15.16a3.9 3.9 0 0 0-3.93-3.86 3.9 3.9 0 0 0-3.94 3.86 3.9 3.9 0 0 0 3.94 3.86 3.9 3.9 0 0 0 3.93-3.86zm31.97 0a3.9 3.9 0 0 0-3.94-3.86 3.9 3.9 0 0 0-3.93 3.86 3.9 3.9 0 0 0 3.93 3.86 3.9 3.9 0 0 0 3.94-3.86zm3.87-7.55v-2.02h-2.05v1.01c0 .56.46 1.01 1.02 1.01zm-37.9 7.55c0 1.01-.84 1.84-1.87 1.84a1.86 1.86 0 0 1-1.88-1.84c0-1.02.84-1.84 1.88-1.84 1.03 0 1.87.82 1.87 1.84zm31.97 0c0 1.01-.84 1.84-1.88 1.84a1.86 1.86 0 0 1-1.87-1.84c0-1.02.84-1.84 1.87-1.84 1.04 0 1.88.82 1.88 1.84zm-11.62-4.76c0 .5-.41.9-.91.9h-13.56a.9.9 0 0 1-.91-.9c0-.49.4-.89.9-.89h13.57c.5 0 .9.4.9.9zm-23.25-3.8c0 .5-.4.9-.91.9h-11.62a.9.9 0 0 1-.91-.9c0-.49.4-.89.9-.89h11.63c.5 0 .9.4.9.9zm16.2-11.72l-8.72 8.55a.91.91 0 0 1-1.28 0l-4.85-4.75a.88.88 0 0 1 0-1.26.92.92 0 0 1 1.29 0l4.2 4.12 8.08-7.92a.92.92 0 0 1 1.28 0c.35.34.35.9 0 1.26z"/></defs><g><g transform="translate(-799 -1010)"><use xlink:href="#m68za"/></g></g></svg>