<svg xmlns="http://www.w3.org/2000/svg" xmlns:xlink="http://www.w3.org/1999/xlink" width="54" height="50" viewBox="0 0 54 50"><defs><path id="3gdka" d="M238.4 1051.25a4.76 4.76 0 1 1-9.52-.01 4.76 4.76 0 0 1 9.51 0zm-2.66 0a2.1 2.1 0 1 0-4.2 0 2.1 2.1 0 0 0 4.2 0zm19.31 0a4.76 4.76 0 1 1-9.51-.01 4.76 4.76 0 0 1 9.51 0zm-2.65 0a2.1 2.1 0 1 0-4.2 0 2.1 2.1 0 0 0 4.2 0zm.4-28.45c0 .74-.6 1.33-1.33 1.33h-19a1.33 1.33 0 0 1 0-2.65h19c.73 0 1.33.6 1.33 1.32zm-1.04 6.9c0 .73-.59 1.32-1.32 1.32H233.5a1.33 1.33 0 0 1 0-2.65h16.93c.73 0 1.32.6 1.32 1.32zm13.19-11.92l-3.71 18.01a2.66 2.66 0 0 1-2.6 2.12h-32.79l.78 3.79h31.77a1.33 1.33 0 0 1 0 2.65h-31.77c-1.25 0-2.34-.89-2.6-2.12l-6.41-31.16-5.82-2.52a1.33 1.33 0 0 1 1.05-2.44l5.82 2.53c.8.34 1.37 1.05 1.55 1.9l.83 4.05h41.3a2.64 2.64 0 0 1 2.6 3.19zm-2.6-.54H221.6l3.7 18.01h33.34z"/></defs><g><g transform="translate(-211 -1006)"><use xlink:href="#3gdka"/></g></g></svg>